<svg xmlns="http://www.w3.org/2000/svg" width="60" height="60" viewBox="0 0 60 60" fill="none">
  <path d="M50.625 3.75H9.375C6.27 3.75 3.75 6.27 3.75 9.375V50.625C3.75 53.73 6.27 56.25 9.375 56.25H50.625C53.73 56.25 56.25 53.73 56.25 50.625V9.375C56.25 6.27 53.73 3.75 50.625 3.75ZM18.6337 45.0581C17.9887 46.1831 16.5469 46.5581 15.435 45.9131C14.31 45.2681 13.935 43.8263 14.58 42.7144L16.2563 39.8194C18.1425 39.2456 19.6894 39.69 20.8969 41.1544L18.6337 45.0581ZM34.9106 38.7431H13.5938C12.3038 38.7431 11.25 37.6875 11.25 36.3994C11.25 35.1112 12.3056 34.0556 13.5938 34.0556H19.5712L27.2344 20.79L24.8325 16.6425C24.1875 15.5175 24.5756 14.0869 25.6875 13.4438C26.8125 12.7987 28.2431 13.1869 28.8862 14.2987L29.9287 16.1025L30.9712 14.2987C31.6162 13.1737 33.0581 12.7987 34.17 13.4438C35.295 14.0887 35.67 15.5306 35.025 16.6425L24.9713 34.0575H32.2481C34.6144 34.0575 35.94 36.8344 34.9088 38.745L34.9106 38.7431ZM46.4062 38.7431H43.0069L45.3038 42.7162C45.9487 43.8412 45.5606 45.2719 44.4487 45.915C43.3237 46.56 41.8931 46.1719 41.25 45.06C37.395 38.3925 34.5112 33.3769 32.5781 30.0487C30.6206 26.6494 32.0156 23.2519 33.4106 22.1044C34.9463 24.765 37.2431 28.7494 40.3125 34.0575H46.4062C47.6963 34.0575 48.75 35.1131 48.75 36.4012C48.75 37.7025 47.6944 38.7431 46.4062 38.7431Z" fill="white"/>
</svg>