<svg xmlns="http://www.w3.org/2000/svg" width="60" height="60" viewBox="0 0 60 60" fill="none">
  <path fill-rule="evenodd" clip-rule="evenodd" d="M7.40569 40.8769C8.30205 40.3584 9.44904 40.6647 9.96756 41.5611C13.9688 48.4781 21.4428 53.1249 30 53.1249C38.5572 53.1249 46.0312 48.4781 50.0324 41.5611C50.5509 40.6647 51.6979 40.3584 52.5943 40.8769C53.4907 41.3955 53.797 42.5424 53.2785 43.4388C48.6345 51.4669 39.9499 56.8749 30 56.8749C20.0501 56.8749 11.3655 51.4669 6.72154 43.4388C6.20302 42.5424 6.50932 41.3955 7.40569 40.8769Z" fill="white"/>
  <path fill-rule="evenodd" clip-rule="evenodd" d="M30 6.875C21.4428 6.875 13.9688 11.5219 9.96756 18.4389C9.44904 19.3352 8.30205 19.6415 7.40569 19.123C6.50932 18.6045 6.20302 17.4575 6.72154 16.5611C11.3655 8.53307 20.0501 3.125 30 3.125C39.9499 3.125 48.6345 8.53307 53.2785 16.5611C53.797 17.4575 53.4907 18.6045 52.5943 19.123C51.6979 19.6415 50.5509 19.3352 50.0324 18.4389C46.0312 11.5219 38.5572 6.875 30 6.875Z" fill="white"/>
  <path fill-rule="evenodd" clip-rule="evenodd" d="M38.753 40.6975C39.7485 40.9825 40.3244 42.0207 40.0393 43.0162C38.8863 47.0424 37.3939 50.264 36.184 52.4877C35.5786 53.6003 35.0424 54.4659 34.6522 55.0604C34.457 55.3577 34.2982 55.5875 34.1853 55.7468C34.1288 55.8265 34.0838 55.8886 34.0514 55.9326L34.0125 55.9853L34.0004 56.0014L33.9962 56.0069L33.9946 56.009C33.9943 56.0094 33.9934 56.0106 32.5001 54.8767L33.9946 56.009C33.3684 56.8337 32.1909 56.9962 31.3662 56.37C30.5422 55.7443 30.3809 54.5697 31.0051 53.7451C31.005 53.7452 31.0051 53.745 31.0051 53.7451C31.0053 53.7449 31.0067 53.743 31.0068 53.7428L31.0289 53.7129C31.0492 53.6853 31.082 53.6402 31.1261 53.578C31.2143 53.4536 31.3477 53.2608 31.5172 53.0027C31.8562 52.4862 32.3385 51.7092 32.8901 50.6954C33.9942 48.6661 35.3702 45.6994 36.4343 41.9838C36.7193 40.9883 37.7575 40.4124 38.753 40.6975Z" fill="white"/>
  <path fill-rule="evenodd" clip-rule="evenodd" d="M21.247 40.6973C20.2515 40.9824 19.6756 42.0206 19.9607 43.0161C21.1137 47.0423 22.6061 50.2639 23.816 52.4876C24.4214 53.6002 24.9576 54.4658 25.3478 55.0603C25.543 55.3576 25.7018 55.5874 25.8147 55.7467C25.8712 55.8264 25.9162 55.8884 25.9486 55.9325L25.9875 55.9851L25.9996 56.0012L26.0038 56.0067L26.0054 56.0088C26.0057 56.0092 26.0066 56.0105 27.4999 54.8766L26.0054 56.0088C26.6316 56.8335 27.8091 56.9961 28.6338 56.3698C29.4578 55.7442 29.6191 54.5695 28.9949 53.745C28.995 53.745 28.9949 53.7449 28.9949 53.745C28.9947 53.7447 28.9933 53.7429 28.9932 53.7426L28.9711 53.7128C28.9508 53.6852 28.918 53.6401 28.8739 53.5779C28.7857 53.4535 28.6523 53.2607 28.4828 53.0025C28.1438 52.4861 27.6615 51.709 27.1099 50.6952C26.0058 48.666 24.6298 45.6992 23.5657 41.9837C23.2807 40.9882 22.2425 40.4122 21.247 40.6973Z" fill="white"/>
  <path fill-rule="evenodd" clip-rule="evenodd" d="M27.4999 5.12328C26.0066 3.98934 26.0063 3.98973 26.006 3.99013L26.0038 3.99312L25.9996 3.99862L25.9875 4.01473L25.9486 4.06734C25.9162 4.11142 25.8712 4.17348 25.8147 4.25314C25.7018 4.41244 25.5429 4.64225 25.3478 4.93959C24.9576 5.53408 24.4214 6.39964 23.8159 7.51231C22.606 9.73594 21.1136 12.9576 19.9606 16.9838C19.6755 17.9793 20.2515 19.0174 21.247 19.3025C22.2425 19.5876 23.2806 19.0117 23.5657 18.0162C24.6298 14.3006 26.0057 11.3339 27.1099 9.30461C27.6615 8.29083 28.1438 7.5138 28.4828 6.99732C28.6522 6.73916 28.7857 6.54639 28.8739 6.42197C28.918 6.35978 28.9508 6.3147 28.971 6.28711L28.9919 6.25889L28.9941 6.25597C28.9938 6.2563 28.9931 6.25722 27.4999 5.12328Z" fill="white"/>
  <path fill-rule="evenodd" clip-rule="evenodd" d="M32.5128 5.12304C34.0061 3.9891 34.0064 3.98948 34.0067 3.98988L34.0089 3.99288L34.0131 3.99837L34.0252 4.01449L34.0641 4.0671C34.0965 4.11118 34.1415 4.17324 34.198 4.2529C34.3109 4.4122 34.4697 4.64201 34.6649 4.93934C35.0551 5.53383 35.5913 6.39939 36.1967 7.51207C37.4067 9.7357 38.899 12.9573 40.0521 16.9835C40.3372 17.9791 39.7612 19.0172 38.7657 19.3023C37.7702 19.5874 36.7321 19.0115 36.447 18.016C35.3829 14.3004 34.007 11.3336 32.9028 9.30437C32.3512 8.29059 31.8689 7.51356 31.5299 6.99707C31.3605 6.73892 31.227 6.54614 31.1388 6.42173C31.0947 6.35953 31.0619 6.31445 31.0417 6.28686L31.0208 6.25865L31.0186 6.25572C31.0189 6.25605 31.0196 6.25697 32.5128 5.12304Z" fill="white"/>
  <path fill-rule="evenodd" clip-rule="evenodd" d="M21.9612 23.2041C22.9531 22.9065 23.9984 23.4694 24.2959 24.4612L26.25 30.9748L28.2041 24.4612C28.442 23.6681 29.172 23.125 30 23.125C30.828 23.125 31.558 23.6681 31.7959 24.4612L33.75 30.9748L35.7041 24.4612C36.0016 23.4694 37.0469 22.9065 38.0388 23.2041C39.0306 23.5016 39.5935 24.5469 39.2959 25.5388L35.5459 38.0388C35.308 38.8319 34.578 39.375 33.75 39.375C32.922 39.375 32.192 38.8319 31.9541 38.0388L30 31.5252L28.0459 38.0388C27.808 38.8319 27.078 39.375 26.25 39.375C25.422 39.375 24.692 38.8319 24.4541 38.0388L20.7041 25.5388C20.4065 24.5469 20.9694 23.5016 21.9612 23.2041Z" fill="white"/>
  <path fill-rule="evenodd" clip-rule="evenodd" d="M1.96123 23.2041C2.95309 22.9065 3.99837 23.4694 4.29593 24.4612L6.25001 30.9748L8.20408 24.4612C8.44201 23.6681 9.17199 23.125 10 23.125C10.828 23.125 11.558 23.6681 11.7959 24.4612L13.75 30.9748L15.7041 24.4612C16.0016 23.4694 17.0469 22.9065 18.0388 23.2041C19.0306 23.5016 19.5935 24.5469 19.2959 25.5388L15.5459 38.0388C15.308 38.8319 14.578 39.375 13.75 39.375C12.922 39.375 12.192 38.8319 11.9541 38.0388L10 31.5252L8.04593 38.0388C7.808 38.8319 7.07802 39.375 6.25001 39.375C5.42199 39.375 4.69201 38.8319 4.45408 38.0388L0.704081 25.5388C0.406523 24.5469 0.969366 23.5016 1.96123 23.2041Z" fill="white"/>
  <path fill-rule="evenodd" clip-rule="evenodd" d="M41.9612 23.2041C42.9531 22.9065 43.9984 23.4694 44.2959 24.4612L46.25 30.9748L48.2041 24.4612C48.442 23.6681 49.172 23.125 50 23.125C50.828 23.125 51.558 23.6681 51.7959 24.4612L53.75 30.9748L55.7041 24.4612C56.0016 23.4694 57.0469 22.9065 58.0388 23.2041C59.0306 23.5016 59.5935 24.5469 59.2959 25.5388L55.5459 38.0388C55.308 38.8319 54.578 39.375 53.75 39.375C52.922 39.375 52.192 38.8319 51.9541 38.0388L50 31.5252L48.0459 38.0388C47.808 38.8319 47.078 39.375 46.25 39.375C45.422 39.375 44.692 38.8319 44.4541 38.0388L40.7041 25.5388C40.4065 24.5469 40.9694 23.5016 41.9612 23.2041Z" fill="white"/>
</svg>