<svg xmlns="http://www.w3.org/2000/svg" width="282" height="95" viewBox="0 0 282 95" fill="none">
  <path d="M25.4264 76.4H0.0263672V69.3L19.3264 37H0.826367V21.4H43.2264V27.1L23.1264 60.8H28.0264C34.8264 60.8 39.0264 60.8 43.7264 60.2V75.5C39.3264 76.6 31.2264 76.4 25.4264 76.4Z" fill="white"/>
  <path d="M49.5896 21.4H66.8896V76.4H49.5896V21.4ZM66.8896 15.6H49.5896V2.2H66.8896V15.6Z" fill="white"/>
  <path d="M102.18 58.9C109.38 58.8 113.28 54.1 113.28 47.9C113.28 39.2 108.18 35.2 102.18 34.9C97.2803 34.6 91.4803 37.8 91.0803 47C90.6803 55.2 95.9803 59 102.18 58.9ZM131.08 66.9C131.08 77.2 129.68 84.1 121.68 89.8C115.48 94 106.58 94.9 97.6803 94.5C91.5803 94.2 83.6803 92.4 76.2803 88.1L83.4803 74.5C90.3803 78.4 96.8803 80.5 104.58 79.7C111.28 78.9 113.58 75 113.58 71.4V69C110.98 71.8 105.28 73.7 99.4803 73.7C87.6803 73.7 73.4803 65.8 74.0803 47.8C74.7803 28 86.6803 19.4 100.48 20.1C106.28 20.3 110.68 22.4 113.58 25.3V21.4H131.08V66.9Z" fill="white"/>
  <path d="M166.34 58.9C173.54 58.8 177.44 54.1 177.44 47.9C177.44 39.2 172.34 35.2 166.34 34.9C161.44 34.6 155.64 37.8 155.24 47C154.84 55.2 160.14 59 166.34 58.9ZM195.24 66.9C195.24 77.2 193.84 84.1 185.84 89.8C179.64 94 170.74 94.9 161.84 94.5C155.74 94.2 147.84 92.4 140.44 88.1L147.64 74.5C154.54 78.4 161.04 80.5 168.74 79.7C175.44 78.9 177.74 75 177.74 71.4V69C175.14 71.8 169.44 73.7 163.64 73.7C151.84 73.7 137.64 65.8 138.24 47.8C138.94 28 150.84 19.4 164.64 20.1C170.44 20.3 174.84 22.4 177.74 25.3V21.4H195.24V66.9Z" fill="white"/>
  <path d="M203.301 0.699997H220.701V76.4H203.301V0.699997Z" fill="white"/>
  <path d="M227.589 49.2C227.589 30.8 238.789 19.4 254.989 19.4C271.589 19.4 281.189 31.6 281.189 49.4L280.789 54.9H244.689C245.089 60 249.989 62.8 255.689 62.8C260.889 62.8 264.489 60.7 267.689 56.8L278.989 66.6C273.089 74.7 265.089 78.4 254.989 78.4C238.889 78.4 227.289 67.2 227.589 49.2ZM264.289 41.5C263.589 36.9 259.589 34.7 255.089 34.7C250.089 34.7 246.289 37.2 245.689 41.5H264.289Z" fill="white"/>
</svg>