<svg width="100" height="100" viewBox="0 0 100 100" fill="none" xmlns="http://www.w3.org/2000/svg">
  <path fill-rule="evenodd" clip-rule="evenodd"
    d="M29.7261 11.9722C30.7478 10.5113 32.46 9 35.2457 9C36.5023 9 37.8143 9.29382 39.0426 9.66462C40.2821 10.0388 41.562 10.5317 42.7534 10.9942C42.8094 11.0159 42.8651 11.0375 42.9206 11.0591C44.077 11.5081 45.1443 11.9225 46.1325 12.234C47.1848 12.5657 47.9887 12.7272 48.5722 12.7272H51.4266C52.0101 12.7272 52.8141 12.5657 53.8664 12.234C54.8546 11.9225 55.9218 11.5081 57.0782 11.0591L57.2454 10.9942C58.4369 10.5317 59.7167 10.0388 60.9563 9.66462C62.1846 9.29382 63.4965 9 64.7531 9C67.5389 9 69.2511 10.5113 70.2727 11.9722C70.7648 12.6758 71.1169 13.3907 71.3661 13.9129C71.4039 13.992 71.4379 14.0637 71.4691 14.1296C71.5498 14.2997 71.6121 14.431 71.6736 14.5517C71.7237 14.65 71.7514 14.6963 71.7587 14.7089C72.6202 15.7816 78.4926 23.8101 79.318 25.1183C79.3453 25.1616 79.3795 25.2152 79.4203 25.279C80.4772 26.9335 85.9185 35.1111 88.7876 48.8991C89.1719 50.7464 89.439 52.1573 89.7888 54.7447C90.0807 56.9036 90.0006 59.4836 89.9482 61.04C89.9346 61.444 89.9229 61.7925 89.92 62.0673C89.9054 63.4574 89.7181 65.4025 89.5135 67.3088C89.4772 67.6475 89.4403 67.9913 89.4037 68.3391C88.7136 74.9017 85.7718 78.5513 84.6328 79.9397C84.3793 80.2486 84.1234 80.5436 83.8661 80.8308C82.5116 82.3427 77.9436 86.8307 69.9085 88.7685C62.0248 90.6699 55.8884 90.9486 54.2251 90.9894C54.1705 90.9941 54.1153 90.9964 54.0596 90.9964H45.9393C45.8835 90.9964 45.8283 90.9941 45.7737 90.9894C44.1104 90.9486 37.974 90.6698 30.0903 88.7685C22.0553 86.8307 17.4872 82.3428 16.1327 80.8308C15.8755 80.5436 15.6195 80.2487 15.366 79.9397C14.227 78.5513 11.2853 74.9017 10.5952 68.3391C10.5586 67.9914 10.5217 67.6476 10.4853 67.3089C10.2807 65.4026 10.0934 63.4575 10.0789 62.0673C10.076 61.7925 10.0643 61.444 10.0507 61.04C9.99824 59.4835 9.9181 56.9036 10.21 54.7447C10.5599 52.1573 10.8269 50.7464 11.2113 48.8991C14.0803 35.111 19.5217 26.9334 20.5786 25.279C20.6193 25.2152 20.6536 25.1616 20.6809 25.1183C21.5063 23.8101 27.3787 15.7816 28.2402 14.7089C28.2475 14.6964 28.2751 14.65 28.3252 14.5517C28.3867 14.431 28.449 14.2997 28.5296 14.1296C28.5609 14.0638 28.5949 13.992 28.6327 13.9129C28.8819 13.3907 29.234 12.6758 29.7261 11.9722ZM52.0069 16.5596C53.0119 16.4821 54.0499 16.2186 55.0255 15.9111C56.1378 15.5604 57.3144 15.1035 58.433 14.669C58.5024 14.642 58.5715 14.6152 58.6404 14.5884C59.8496 14.1191 60.995 13.6802 62.0705 13.3556C63.1571 13.0275 64.0499 12.8555 64.7531 12.8555C65.8869 12.8555 66.5536 13.3815 67.1133 14.1818C67.4119 14.6088 67.6512 15.0803 67.8868 15.5738C67.9117 15.626 67.9378 15.6811 67.9647 15.7377C68.0532 15.9245 68.1497 16.1281 68.2384 16.3021C68.3463 16.5139 68.5164 16.8334 68.7465 17.1156C69.4376 17.963 75.3231 26.0121 76.0573 27.1757C76.0823 27.2153 76.1143 27.2653 76.153 27.3258C77.1243 28.8433 82.2826 36.5629 85.0129 49.6845C85.3824 51.4599 85.6326 52.7799 85.9681 55.2614C86.2109 57.0567 86.1495 59.1466 86.099 60.6987C86.0834 61.1779 86.0689 61.6249 86.0647 62.027C86.0523 63.2141 85.8898 64.9335 85.684 66.858C85.647 67.2041 85.6085 67.5632 85.5694 67.9359C84.9824 73.5172 82.4861 76.4777 81.6521 77.4943C81.4424 77.7498 81.2244 78.0015 80.9944 78.2582C79.9581 79.4151 76.0292 83.3263 69.0046 85.0205C60.2482 87.1323 53.7774 87.1409 53.7774 87.1409H46.2214C46.2214 87.1409 39.7506 87.1323 30.9942 85.0205C23.9696 83.3263 20.0408 79.4151 19.0044 78.2582C18.7744 78.0015 18.5564 77.7498 18.3467 77.4943C17.5127 76.4777 15.0164 73.5172 14.4295 67.9359C14.3903 67.5633 14.3519 67.2041 14.3149 66.8581C14.1091 64.9335 13.9466 63.2141 13.9341 62.027C13.9299 61.6249 13.9154 61.1779 13.8998 60.6987C13.8494 59.1466 13.788 57.0567 14.0307 55.2614C14.3663 52.7799 14.6165 51.4599 14.9859 49.6845C17.7162 36.563 22.8745 28.8434 23.8458 27.3258C23.8845 27.2653 23.9165 27.2153 23.9415 27.1757C24.6757 26.0121 30.5612 17.963 31.2523 17.1156C31.4824 16.8334 31.6525 16.5139 31.7605 16.3021C31.8491 16.1282 31.9456 15.9245 32.0341 15.7378C32.0609 15.6815 32.0873 15.6258 32.1121 15.5738C32.3477 15.0803 32.5869 14.6088 32.8855 14.1818C33.4452 13.3815 34.1119 12.8555 35.2457 12.8555C35.9489 12.8555 36.8417 13.0275 37.9284 13.3556C39.0038 13.6802 40.1492 14.1191 41.3584 14.5884C41.4273 14.6152 41.4965 14.642 41.5659 14.669C42.6844 15.1035 43.861 15.5604 44.9734 15.9111C45.9489 16.2186 46.987 16.4821 47.992 16.5596C48.0894 16.5748 48.1893 16.5826 48.291 16.5826H51.7078C51.8095 16.5826 51.9094 16.5748 52.0069 16.5596Z"
    fill="currentColor" />
  <path
    d="M49.5077 42.3367C49.6918 42.0648 49.8551 41.7871 50 41.5083C50.1449 41.7871 50.3082 42.0648 50.4923 42.3367C51.4293 43.7207 52.8077 44.3746 53.8622 44.6861C54.3968 44.844 54.8757 44.9225 55.2231 44.962C55.3977 44.9818 55.5416 44.9921 55.6458 44.9974C55.75 45.0027 55.25 45.0033 55.8333 45.0031C56.5175 45.0029 57 44.4808 57 43.8364C57 43.1938 56.4804 42.6726 55.8385 42.6698L55.8285 42.6696C55.8166 42.6693 55.7949 42.6686 55.7645 42.6671C55.7035 42.664 55.6081 42.6574 55.4865 42.6436C55.2414 42.6157 54.9 42.5596 54.5232 42.4483C53.7548 42.2214 52.9457 41.7984 52.4244 41.0285C51.8153 40.1289 51.4931 39.085 51.3277 38.2302C51.2462 37.809 51.2058 37.779 51.1858 37.5281C51.1758 37.4031 51.171 37.3062 51.1687 37.2437C51.1676 37.2124 51.1671 37.1898 51.1668 37.1767L51.1667 37.1642C51.1667 37.1642 51.1666 36.6835 50.8248 36.3418C50.4831 36 50 36 50 36C50 36 49.5169 36 49.1752 36.3418C48.8334 36.6835 48.8333 37.1642 48.8333 37.1642L48.8332 37.1767C48.8329 37.1898 48.8324 37.2124 48.8313 37.2437C48.829 37.3062 48.8242 37.4031 48.8142 37.5281C48.7943 37.779 48.7538 37.809 48.6723 38.2302C48.5069 39.085 48.1847 40.1289 47.5756 41.0285C47.0543 41.7984 46.2452 42.2214 45.4768 42.4483C45.1 42.5596 44.7586 42.6157 44.5135 42.6436C44.3919 42.6574 44.2965 42.664 44.2355 42.6671C44.2051 42.6686 44.1834 42.6693 44.1715 42.6696L44.1615 42.6698C43.5196 42.6726 43 43.1938 43 43.8364C43 44.4808 43.4826 45.0029 44.1667 45.0031C44.75 45.0033 44.25 45.0027 44.3542 44.9974C44.4584 44.9921 44.6023 44.9818 44.7769 44.962C45.1243 44.9225 45.6032 44.844 46.1378 44.6861C47.1923 44.3746 48.5707 43.7207 49.5077 42.3367Z"
    fill="currentColor" />
  <path
    d="M40 38C40 40.2091 38.2091 42 36 42C33.7909 42 32 40.2091 32 38C32 35.7909 33.7909 34 36 34C38.2091 34 40 35.7909 40 38Z"
    fill="currentColor" />
  <path
    d="M68 38C68 40.2091 66.2091 42 64 42C61.7909 42 60 40.2091 60 38C60 35.7909 61.7909 34 64 34C66.2091 34 68 35.7909 68 38Z"
    fill="currentColor" />
</svg>
  