<svg width="100" height="100" viewBox="0 0 100 100" fill="none" xmlns="http://www.w3.org/2000/svg">
<path d="M49.0193 12.8669C45.3594 12.8669 39.2597 9 35.1932 9C31.1268 9 30.2572 13.2276 29.5002 14.1558C28.7432 15.0841 22.5872 23.5008 21.7739 24.7897C21.0539 25.9309 15.2343 34.6488 12.2159 49.1549C11.8249 51.0342 11.5566 52.4508 11.201 55.0803C10.8455 57.7097 11.0664 60.6051 11.0829 62.1809C11.0994 63.7567 11.3485 65.8278 11.6077 68.2921C12.2701 74.5916 15.0911 78.5393 16.1146 79.7868C16.3549 80.0797 16.6007 80.3633 16.8535 80.6454C18.0937 82.0299 22.5014 86.3869 30.3135 88.2709C39.6663 90.5266 46.5792 90.5266 46.5794 90.5266H54.4206C54.4208 90.5266 61.3337 90.5266 70.6865 88.2709C78.4986 86.3869 82.9063 82.0299 84.1465 80.6454C84.3993 80.3633 84.6451 80.0797 84.8854 79.7868C85.9089 78.5393 88.7299 74.5916 89.3923 68.2921C89.6515 65.8278 89.9006 63.7567 89.9171 62.1809C89.9336 60.6051 90.1545 57.7097 89.799 55.0803C89.4434 52.4508 89.1751 51.0342 88.7841 49.1549C85.7656 34.6488 79.9461 25.9309 79.2261 24.7897C78.4128 23.5008 72.2568 15.0841 71.4998 14.1558C70.7428 13.2276 69.8732 9 65.8068 9C61.7403 9 55.6406 12.8669 51.9807 12.8669H49.0193Z" fill="white"/>
<path d="M52.2725 12.8669H49.0193C45.3594 12.8669 39.2597 9 35.1932 9C31.1268 9 30.2572 13.2276 29.5002 14.1558C28.7432 15.0841 22.5872 23.5008 21.7739 24.7897C21.0539 25.9309 15.2343 34.6488 12.2159 49.1549C11.8249 51.0342 11.5566 52.4508 11.201 55.0803C10.8455 57.7097 11.0664 60.6051 11.0829 62.1809C11.0994 63.7567 11.3485 65.8278 11.6077 68.2921C12.2701 74.5916 15.0911 78.5393 16.1146 79.7868C16.3549 80.0797 16.6007 80.3633 16.8535 80.6454C18.0937 82.0299 22.5014 86.3869 30.3135 88.2709C39.6663 90.5266 46.5792 90.5266 46.5794 90.5266C46.5794 90.5266 46.5794 90.5266 46.5794 90.5266H54.7123M48.7275 12.8669H51.9807C55.6406 12.8669 61.7403 9 65.8068 9C69.8732 9 70.7428 13.2276 71.4998 14.1558C72.2568 15.0841 78.4128 23.5008 79.2261 24.7897C79.9461 25.9309 85.7656 34.6488 88.7841 49.1549C89.1751 51.0342 89.4434 52.4508 89.799 55.0803C90.1545 57.7097 89.9336 60.6051 89.9171 62.1809C89.9006 63.7567 89.6515 65.8278 89.3923 68.2921C88.7299 74.5916 85.9089 78.5393 84.8854 79.7868C84.6451 80.0797 84.3993 80.3633 84.1465 80.6454C82.9063 82.0299 78.4986 86.3869 70.6865 88.2709C61.3337 90.5266 54.4208 90.5266 54.4206 90.5266C54.4206 90.5266 54.4206 90.5266 54.4206 90.5266H46.2877" stroke="#222222" stroke-width="4" stroke-linecap="round"/>
<circle cx="35.9447" cy="38.812" r="4.25885" fill="#222222"/>
<circle cx="63.9315" cy="38.812" r="4.25885" fill="#222222"/>
<path d="M43.854 45.5045C43.854 45.5045 46.896 45.5045 48.4171 43.258C49.9381 41.0116 49.9381 38.2036 49.9381 38.2036" stroke="#222222" stroke-width="2" stroke-linecap="round"/>
<path d="M56.0222 45.5044C56.0222 45.5044 52.9801 45.5044 51.4591 43.258C49.9381 41.0115 49.9381 38.2035 49.9381 38.2035" stroke="#222222" stroke-width="2" stroke-linecap="round"/>
</svg>
