<svg width="129" height="34" viewBox="0 0 129 34" fill="none" xmlns="http://www.w3.org/2000/svg">
<path d="M3.87688 27V16.192H1.35688V12.72H8.07688V27H3.87688ZM3.87688 10.816V7.4H8.07688V10.816H3.87688ZM11.7223 27V12.72H15.9223V13.504C16.4077 13.1307 16.9303 12.8507 17.4903 12.664C18.0503 12.4773 18.657 12.384 19.3103 12.384C20.1503 12.384 20.9343 12.5427 21.6623 12.86C22.3903 13.1587 22.9783 13.6347 23.4263 14.288C23.8743 14.9227 24.0983 15.744 24.0983 16.752V27H19.8983V18.208C19.8983 17.4987 19.7677 16.9853 19.5063 16.668C19.245 16.3507 18.7317 16.192 17.9663 16.192C17.2197 16.192 16.6877 16.3507 16.3703 16.668C16.0717 16.9853 15.9223 17.4987 15.9223 18.208V27H11.7223ZM28.7571 27V16.192H26.3491V12.72H28.7571V11.152C28.7571 10.0507 29.0091 9.108 29.5131 8.324C30.0357 7.54 30.7544 6.94267 31.6691 6.532C32.6024 6.12133 33.6944 5.916 34.9451 5.916C35.8597 5.916 36.7091 6.04667 37.4931 6.308C38.2957 6.56933 38.9677 6.93333 39.5091 7.4L38.1931 10.256C37.7637 9.95733 37.3157 9.752 36.8491 9.64C36.3824 9.50933 35.9531 9.444 35.5611 9.444C34.5904 9.444 33.9091 9.60267 33.5171 9.92C33.1437 10.2373 32.9571 10.648 32.9571 11.152V12.72H35.8691V16.192H32.9571V27H28.7571ZM43.2775 27.336C41.4295 27.336 39.9735 26.8693 38.9095 25.936C37.8455 24.984 37.2201 23.7987 37.0335 22.38C36.9215 21.484 36.8655 20.6627 36.8655 19.916C36.8655 19.4867 36.8748 19.0667 36.8935 18.656C36.9121 18.2453 36.9588 17.8067 37.0335 17.34C37.2388 15.9213 37.8641 14.7453 38.9095 13.812C39.9735 12.86 41.4295 12.384 43.2775 12.384C45.1255 12.384 46.5815 12.8507 47.6455 13.784C48.7281 14.7173 49.3628 15.9027 49.5495 17.34C49.6615 18.2547 49.7175 19.1133 49.7175 19.916C49.7175 20.6627 49.6615 21.484 49.5495 22.38C49.3441 23.7987 48.7095 24.984 47.6455 25.936C46.5815 26.8693 45.1255 27.336 43.2775 27.336ZM43.2775 23.864C43.9868 23.864 44.5281 23.6587 44.9015 23.248C45.2748 22.8187 45.4988 22.324 45.5735 21.764C45.6668 21.0733 45.7135 20.448 45.7135 19.888C45.7135 19.3093 45.6761 18.6747 45.6015 17.984C45.5455 17.3867 45.3215 16.8827 44.9295 16.472C44.5375 16.0427 43.9868 15.828 43.2775 15.828C42.5868 15.828 42.0455 16.0427 41.6535 16.472C41.2615 16.8827 41.0375 17.3867 40.9815 17.984C40.9068 18.6747 40.8695 19.3093 40.8695 19.888C40.8881 20.448 40.9348 21.064 41.0095 21.736C41.0655 22.3147 41.2801 22.8187 41.6535 23.248C42.0455 23.6587 42.5868 23.864 43.2775 23.864ZM57.1047 26.972C56.134 26.972 55.3313 26.664 54.6967 26.048C54.062 25.4133 53.7447 24.6107 53.7447 23.64V16.08H51.5327V12.72H53.2967C53.4833 12.72 53.614 12.6733 53.6887 12.58C53.782 12.468 53.866 12.244 53.9407 11.908C54.0153 11.5533 54.118 11.0213 54.2487 10.312L54.4167 9.36H57.8327V12.72H60.1567V16.08H57.8327V22.912C57.8327 23.0427 57.87 23.1547 57.9447 23.248C58.038 23.3227 58.15 23.36 58.2807 23.36H60.4087V26.972H57.1047ZM69.8433 27.28C68.5553 27.28 67.4167 27.0747 66.4273 26.664C65.4567 26.2347 64.6727 25.656 64.0753 24.928C63.478 24.1813 63.1047 23.3507 62.9553 22.436C62.8993 21.988 62.8527 21.5773 62.8153 21.204C62.7967 20.812 62.7873 20.42 62.7873 20.028C62.7873 19.2813 62.8433 18.4507 62.9553 17.536C63.1607 16.08 63.7673 14.8667 64.7753 13.896C65.802 12.9253 67.174 12.44 68.8913 12.44C69.918 12.44 70.8047 12.5987 71.5513 12.916C72.3167 13.2147 72.9513 13.6627 73.4553 14.26C73.9593 14.8387 74.3327 15.5667 74.5753 16.444C74.818 17.3027 74.9393 18.292 74.9393 19.412L74.3513 20.868H63.6553L63.5993 18.04H71.1313C71.094 17.648 71.01 17.2747 70.8793 16.92C70.7487 16.5653 70.5247 16.276 70.2073 16.052C69.9087 15.828 69.4887 15.716 68.9473 15.716C68.182 15.716 67.622 15.9587 67.2673 16.444C66.9313 16.9293 66.7447 17.592 66.7073 18.432C66.6887 18.9173 66.67 19.4027 66.6513 19.888C66.6513 20.3733 66.67 20.8773 66.7073 21.4C66.8007 22.352 67.1367 23.0053 67.7153 23.36C68.3127 23.696 69.022 23.864 69.8433 23.864C70.3847 23.864 70.9073 23.7987 71.4113 23.668C71.9153 23.5187 72.4567 23.3133 73.0353 23.052L74.0993 26.048C73.4647 26.4587 72.7833 26.7667 72.0553 26.972C71.346 27.1773 70.6087 27.28 69.8433 27.28ZM86.2702 27.336L85.3742 26.132C85.1688 25.8707 84.9542 25.8427 84.7302 26.048C84.3008 26.384 83.8062 26.664 83.2462 26.888C82.7048 27.112 82.0515 27.224 81.2862 27.224C79.9235 27.224 78.8502 26.832 78.0662 26.048C77.2822 25.2453 76.8902 24.2373 76.8902 23.024C76.8902 22.128 77.1048 21.372 77.5342 20.756C77.9822 20.14 78.5795 19.6827 79.3262 19.384C80.0728 19.0667 80.9035 18.908 81.8182 18.908H84.2542V17.536C84.2542 16.9573 84.0488 16.5187 83.6382 16.22C83.2275 15.9213 82.6022 15.772 81.7622 15.772C81.1275 15.772 80.5208 15.8747 79.9422 16.08C79.3635 16.2853 78.7848 16.556 78.2062 16.892L77.0582 13.756C77.7862 13.3267 78.5702 12.9907 79.4102 12.748C80.2502 12.5053 81.1368 12.384 82.0702 12.384C84.1048 12.384 85.5982 12.8693 86.5502 13.84C87.5208 14.792 88.0062 16.0147 88.0062 17.508V23.108L89.4902 25.236L86.2702 27.336ZM82.1822 24.284C82.8355 24.284 83.3395 24.088 83.6942 23.696C84.0675 23.2853 84.2542 22.7627 84.2542 22.128V21.764C84.2542 21.5213 84.0862 21.4467 83.7502 21.54L82.7422 21.848H81.8742C81.4262 21.848 81.0902 21.9507 80.8662 22.156C80.6422 22.3427 80.5302 22.6133 80.5302 22.968C80.5302 23.3227 80.6888 23.6307 81.0062 23.892C81.3235 24.1533 81.7155 24.284 82.1822 24.284ZM91.8669 27V12.72H95.8429V13.784C96.1042 13.4667 96.5522 13.1587 97.1869 12.86C97.8402 12.5427 98.5775 12.384 99.3989 12.384C100.22 12.384 100.902 12.4867 101.443 12.692C102.003 12.8787 102.6 13.2333 103.235 13.756C103.478 13.4573 103.823 13.2053 104.271 13C104.719 12.7947 105.204 12.6453 105.727 12.552C106.268 12.44 106.772 12.384 107.239 12.384C108.154 12.384 108.994 12.5613 109.759 12.916C110.524 13.252 111.14 13.7653 111.607 14.456C112.074 15.1467 112.307 16.0147 112.307 17.06V27H108.107V17.956C108.107 17.34 107.958 16.892 107.659 16.612C107.36 16.332 106.875 16.192 106.203 16.192C105.512 16.192 104.999 16.332 104.663 16.612C104.346 16.892 104.187 17.34 104.187 17.956V27H99.9869V17.956C99.9869 17.34 99.8375 16.892 99.5389 16.612C99.2402 16.332 98.7549 16.192 98.0829 16.192C97.3922 16.192 96.8789 16.332 96.5429 16.612C96.2255 16.892 96.0669 17.34 96.0669 17.956V27H91.8669Z" fill="#222222"/>
<circle cx="122.25" cy="14.3406" r="4.21686" fill="#222222"/>
<path d="M126.701 10.6733C125.8 10.3326 123.451 10.8145 123.451 10.8145C123.451 10.8145 126.433 14.5018 126.465 14.304C126.497 14.1063 126.732 12.9796 126.944 12.206C127.156 11.4325 127.274 11.3549 127.284 11.3059C127.295 11.2569 127.601 11.014 126.701 10.6733Z" fill="#222222"/>
<path d="M125.925 11.4723C125.358 11.6085 125.241 12.0826 125.241 12.0826C125.241 12.0826 126.168 13.5087 126.189 13.3809C126.209 13.2532 126.361 12.5255 126.498 12.0259C126.635 11.5263 126.711 11.4762 126.718 11.4446C126.724 11.413 126.491 11.3362 125.925 11.4723Z" fill="white"/>
<path d="M117.862 10.6733C118.762 10.3326 121.111 10.8145 121.111 10.8145C121.111 10.8145 118.13 14.5018 118.098 14.304C118.066 14.1063 117.831 12.9796 117.619 12.206C117.407 11.4325 117.288 11.3549 117.278 11.3059C117.268 11.2569 116.962 11.014 117.862 10.6733Z" fill="#222222"/>
<path d="M118.638 11.4723C119.204 11.6085 119.322 12.0826 119.322 12.0826C119.322 12.0826 118.394 13.5087 118.374 13.3809C118.353 13.2532 118.202 12.5255 118.065 12.0259C117.928 11.5263 117.851 11.4762 117.845 11.4446C117.838 11.413 118.072 11.3362 118.638 11.4723Z" fill="white"/>
<circle cx="122.25" cy="24.5121" r="4.21686" fill="#222222"/>
<path d="M122.928 23.9097L126.392 24.0226C126.392 24.0226 126.564 24.7762 126.505 25.7169C126.452 26.5469 126.289 27.5394 126.166 28.0512C125.902 29.1431 125.45 30.4609 124.999 31.1386C124.547 31.8163 123.907 32.4187 123.455 32.8328C123.003 33.247 121.949 34 121.949 34C121.949 34 122.74 30.7621 122.815 29.8396C122.89 28.9172 122.928 28.4654 122.928 28.4654V23.9097Z" fill="#222222"/>
</svg>
