<svg width="120" height="120" viewBox="0 0 120 120" fill="none" xmlns="http://www.w3.org/2000/svg">
<path d="M27 0.5H93C107.636 0.5 119.5 12.3645 119.5 27V93C119.5 107.636 107.636 119.5 93 119.5H27C12.3645 119.5 0.5 107.636 0.5 93V27C0.500001 12.3645 12.3645 0.5 27 0.5Z" fill="white" stroke="#D6D6D6"/>
<path d="M59.1173 26.5803C55.8235 26.5803 50.3337 23.1001 46.6739 23.1001C43.0141 23.1001 42.2314 26.9049 41.5502 27.7403C40.8689 28.5758 35.3284 36.1508 34.5965 37.3109C33.9485 38.3379 28.7109 46.184 25.9943 59.2395C25.6424 60.9308 25.4009 62.2058 25.0809 64.5723C24.7609 66.9389 24.9598 69.5447 24.9746 70.9629C24.9894 72.3811 25.2137 74.2451 25.4469 76.463C26.1789 83.4233 29.8387 87.1935 29.8387 87.1935C29.8387 87.1935 33.8645 92.4138 42.2821 94.4439C50.6997 96.474 56.9214 96.474 56.9214 96.474H63.9786C63.9786 96.474 70.2003 96.474 78.6179 94.4439C87.0355 92.4138 91.0613 87.1935 91.0613 87.1935C91.0613 87.1935 94.7211 83.4233 95.4531 76.463C95.6863 74.2451 95.9106 72.3811 95.9254 70.9629C95.9402 69.5447 96.1391 66.9389 95.8191 64.5723C95.4991 62.2058 95.2576 60.9308 94.9057 59.2395C92.1891 46.184 86.9515 38.3379 86.3035 37.3109C85.5715 36.1508 80.0311 28.5758 79.3498 27.7403C78.6685 26.9049 77.8859 23.1001 74.2261 23.1001C70.5662 23.1001 65.0765 26.5803 61.7827 26.5803H59.1173Z" fill="white"/>
<path d="M62.0452 26.5803H59.1173C55.8235 26.5803 50.3337 23.1001 46.6739 23.1001C43.0141 23.1001 42.2314 26.9049 41.5502 27.7403C40.8689 28.5758 35.3284 36.1508 34.5965 37.3109C33.9485 38.3379 28.7109 46.184 25.9943 59.2395C25.6424 60.9308 25.4009 62.2058 25.0809 64.5723C24.7609 66.9389 24.9598 69.5447 24.9746 70.9629C24.9894 72.3811 25.2137 74.2451 25.4469 76.463C26.1789 83.4233 29.8387 87.1935 29.8387 87.1935C29.8387 87.1935 33.8645 92.4138 42.2821 94.4439C50.6997 96.474 56.9214 96.474 56.9214 96.474H64.2411M58.8548 26.5803H61.7827C65.0765 26.5803 70.5662 23.1001 74.2261 23.1001C77.8859 23.1001 78.6685 26.9049 79.3498 27.7403C80.0311 28.5758 85.5715 36.1508 86.3035 37.3109C86.9515 38.3379 92.1891 46.184 94.9057 59.2395C95.2576 60.9308 95.4991 62.2058 95.8191 64.5723C96.1391 66.9389 95.9402 69.5447 95.9254 70.9629C95.9106 72.3811 95.6863 74.2451 95.4531 76.463C94.7211 83.4233 91.0613 87.1935 91.0613 87.1935C91.0613 87.1935 87.0355 92.4138 78.6179 94.4439C70.2003 96.474 63.9786 96.474 63.9786 96.474H56.6589" stroke="#222222" stroke-width="4" stroke-linecap="round"/>
<circle cx="47.3502" cy="49.9309" r="3.83297" fill="#222222"/>
<circle cx="72.5383" cy="49.9309" r="3.83297" fill="#222222"/>
<path d="M54.4686 55.9541C54.4686 55.9541 57.2064 55.9541 58.5753 53.9323C59.9443 51.9105 59.9443 49.3833 59.9443 49.3833" stroke="#222222" stroke-width="2" stroke-linecap="round"/>
<path d="M65.42 55.9541C65.42 55.9541 62.6821 55.9541 61.3132 53.9323C59.9443 51.9105 59.9443 49.3833 59.9443 49.3833" stroke="#222222" stroke-width="2" stroke-linecap="round"/>
</svg>
