<svg width="120" height="120" viewBox="0 0 120 120" fill="none" xmlns="http://www.w3.org/2000/svg">
<path d="M27 0.5H93C107.636 0.5 119.5 12.3645 119.5 27V93C119.5 107.636 107.636 119.5 93 119.5H27C12.3645 119.5 0.5 107.636 0.5 93V27C0.500001 12.3645 12.3645 0.5 27 0.5Z" fill="white" stroke="#D6D6D6"/>
<path d="M82.5247 86.54C79.4847 87.3 76.3247 87.88 73.0447 88.28C69.8047 88.72 66.6647 88.94 63.6247 88.94C60.0247 88.94 56.8647 88.6 54.1447 87.92C51.4647 87.28 49.4847 86.26 48.2047 84.86C47.0447 83.58 46.2247 82.12 45.7447 80.48C45.2647 78.84 45.0247 76.98 45.0247 74.9C45.0247 73.26 45.1647 71.14 45.4447 68.54L52.6447 69.26C52.4047 71.54 52.2847 73.46 52.2847 75.02C52.2847 77.74 52.6847 79.5 53.4847 80.3C54.0847 80.94 55.2647 81.42 57.0247 81.74C58.7847 82.1 60.9247 82.28 63.4447 82.28C66.3647 82.28 69.5047 82.06 72.8647 81.62C76.2647 81.18 79.4847 80.54 82.5247 79.7V86.54ZM81.0247 34.4V71.72H73.8247V52.94H70.0447C69.8847 56.94 69.1247 59.92 67.7647 61.88C66.4447 63.8 64.6447 64.76 62.3647 64.76C60.3647 64.76 58.6247 63.92 57.1447 62.24C55.7047 60.56 54.9847 57.98 54.9847 54.5V35.96H60.9847V44.84C61.8247 44.56 62.7647 44.36 63.8047 44.24C63.5247 40.52 63.1847 37.76 62.7847 35.96H68.9047C69.3847 38.8 69.7047 42.06 69.8647 45.74H73.8247V34.4H81.0247ZM44.4847 54.5C44.4847 57.18 45.0247 58.4 46.1047 58.16C47.0647 57.8 47.5447 55.7 47.5447 51.86V50.84C46.4247 50.92 45.6247 51.22 45.1447 51.74C44.7047 52.22 44.4847 53.14 44.4847 54.5ZM60.9847 54.5C60.9847 57.18 61.5247 58.4 62.6047 58.16C63.5647 57.8 64.0447 55.7 64.0447 51.86V50.84C62.9247 50.92 62.1247 51.22 61.6447 51.74C61.2047 52.22 60.9847 53.14 60.9847 54.5ZM38.4847 35.96H44.4847V44.84C45.3247 44.56 46.2647 44.36 47.3047 44.24C47.0247 40.52 46.6847 37.76 46.2847 35.96H52.4047C52.7247 38 52.9847 40.46 53.1847 43.34C53.4247 46.18 53.5447 49.02 53.5447 51.86C53.5447 56.26 52.8647 59.52 51.5047 61.64C50.1447 63.72 48.2647 64.76 45.8647 64.76C43.8647 64.76 42.1247 63.92 40.6447 62.24C39.2047 60.56 38.4847 57.98 38.4847 54.5V35.96Z" fill="#222222"/>
</svg>
