<svg width="120" height="120" viewBox="0 0 120 120" fill="none" xmlns="http://www.w3.org/2000/svg">
<path d="M27 0.5H93C107.636 0.5 119.5 12.3645 119.5 27V93C119.5 107.636 107.636 119.5 93 119.5H27C12.3645 119.5 0.5 107.636 0.5 93V27C0.500001 12.3645 12.3645 0.5 27 0.5Z" fill="white" stroke="#D6D6D6"/>
<path d="M80.1316 45.7C80.1316 46.8556 79.931 48.04 79.5298 49.2533C78.0971 53.2978 74.8018 56.1578 69.6439 57.8333C71.0193 58.0067 72.3374 58.2667 73.5982 58.6133C80.5327 60.4622 84 64.5933 84 71.0067C84 73.8956 83.1404 76.5533 81.4211 78.98C77.9251 83.66 72.2515 86 64.4 86H35V83.66H41.8772V36.34H35V34H62.8526C66.0047 34 68.8129 34.3467 71.2772 35.04C77.1801 36.7733 80.1316 40.3267 80.1316 45.7ZM58.0386 36.34H53.9123V56.62H58.7263C59.7579 56.62 60.7322 56.5044 61.6491 56.2733C65.6608 55.1178 67.6667 51.8244 67.6667 46.3933C67.6094 39.8067 64.4 36.4556 58.0386 36.34ZM60.9614 59.0467H53.9123V83.66H59.6719C60.417 83.66 61.162 83.6022 61.907 83.4867C67.8673 82.62 70.8474 78.2578 70.8474 70.4C70.8474 68.6667 70.5895 67.0489 70.0737 65.5467C68.5836 61.2133 65.5462 59.0467 60.9614 59.0467Z" fill="#222222"/>
</svg>
