<svg width="120" height="120" viewBox="0 0 120 120" fill="none" xmlns="http://www.w3.org/2000/svg">
<path d="M27 0.5H93C107.636 0.5 119.5 12.3645 119.5 27V93C119.5 107.636 107.636 119.5 93 119.5H27C12.3645 119.5 0.5 107.636 0.5 93V27C0.500001 12.3645 12.3645 0.5 27 0.5Z" fill="white" stroke="#D6D6D6"/>
<path d="M92.9584 78.7916C98.5221 72.4318 101.613 64.2831 101.667 55.8333C101.667 34.9999 82.9584 18.3333 60 18.3333C37.0417 18.3333 18.3334 34.9999 18.3334 55.8333C18.3334 76.6666 37.0417 93.3333 60 93.3333C64.2259 93.3482 68.4331 92.7732 72.5 91.6249L91.625 101.208C92.1504 101.494 92.7357 101.651 93.3334 101.667C94.2732 101.661 95.1836 101.338 95.9167 100.75C96.5256 100.262 96.9851 99.6123 97.243 98.8755C97.5009 98.1389 97.5466 97.3447 97.375 96.5833L92.9584 78.7916Z" fill="url(#paint0_linear_884_716)"/>
<path d="M59.298 59.2471L65.7098 59.2487V66.0099H58.0084C52.5834 66.0099 48.186 61.6121 48.186 56.1875C48.186 50.7629 52.5834 46.3651 58.0084 46.3651H72.4796L81.1674 37.875H57.0625C46.949 37.875 38.75 46.0736 38.75 56.1875C38.75 66.301 46.949 74.5 57.0625 74.5H66.3071H74.9524H74.953V52.2845H74.9524H66.4226L59.298 59.2471Z" fill="white"/>
<defs>
<linearGradient id="paint0_linear_884_716" x1="-84.125" y1="-93.5626" x2="101.625" y2="105.25" gradientUnits="userSpaceOnUse">
<stop stop-color="#FFDBD8"/>
<stop offset="1" stop-color="#EE3627"/>
</linearGradient>
</defs>
</svg>
