<svg width="120" height="120" viewBox="0 0 120 120" fill="none" xmlns="http://www.w3.org/2000/svg">
<path d="M27 0.5H93C107.636 0.500001 119.5 12.3645 119.5 27V93C119.5 107.636 107.636 119.5 93 119.5H27C12.3645 119.5 0.500001 107.636 0.5 93V27C0.500001 12.3645 12.3645 0.5 27 0.5Z" fill="white" stroke="#D6D6D6"/>
<path fill-rule="evenodd" clip-rule="evenodd" d="M42.8791 32.383C43.7533 31.133 45.2183 29.8398 47.6019 29.8398C48.6771 29.8398 49.7997 30.0913 50.8507 30.4085C51.9113 30.7287 53.0064 31.1505 54.0259 31.5462C54.0738 31.5647 54.1215 31.5833 54.169 31.6017C55.1584 31.9859 56.0716 32.3404 56.9172 32.607C57.8176 32.8908 58.5055 33.029 59.0047 33.029H61.4471C61.9464 33.029 62.6343 32.8908 63.5347 32.607C64.3802 32.3404 65.2934 31.9859 66.2829 31.6017L66.4259 31.5462C67.4454 31.1505 68.5405 30.7287 69.6011 30.4085C70.6521 30.0913 71.7747 29.8398 72.8499 29.8398C75.2335 29.8398 76.6986 31.133 77.5728 32.383C77.9938 32.985 78.2951 33.5968 78.5083 34.0435C78.5407 34.1112 78.5697 34.1726 78.5965 34.2289C78.6655 34.3745 78.7188 34.4869 78.7714 34.5901C78.8143 34.6743 78.8379 34.7139 78.8442 34.7247C79.5813 35.6425 84.6061 42.5121 85.3123 43.6314C85.3357 43.6685 85.365 43.7143 85.3998 43.7689C86.3042 45.1846 90.9601 52.1817 93.4149 63.9794C93.7438 65.5601 93.9723 66.7673 94.2717 68.9812C94.5214 70.8285 94.4529 73.036 94.408 74.3678C94.3964 74.7135 94.3863 75.0117 94.3839 75.2468C94.3714 76.4363 94.2112 78.1006 94.0361 79.7316C94.005 80.0215 93.9734 80.3157 93.9421 80.6133C93.3516 86.2285 90.8345 89.3513 89.8599 90.5392C89.643 90.8036 89.424 91.056 89.2039 91.3017C88.0449 92.5954 84.1363 96.4355 77.2611 98.0936C70.5155 99.7205 65.2648 99.959 63.8416 99.9939C63.7949 99.9979 63.7477 99.9999 63.7 99.9999H56.7519C56.7042 99.9999 56.6569 99.9979 56.6102 99.9939C55.187 99.959 49.9364 99.7205 43.1907 98.0936C36.3156 96.4355 32.4069 92.5955 31.248 91.3017C31.0278 91.056 30.8088 90.8036 30.5919 90.5392C29.6173 89.3513 27.1003 86.2285 26.5097 80.6133C26.4785 80.3157 26.4469 80.0215 26.4158 79.7318C26.2407 78.1006 26.0804 76.4363 26.068 75.2468C26.0655 75.0117 26.0555 74.7135 26.0438 74.3677C25.999 73.036 25.9304 70.8285 26.1802 68.9813C26.4796 66.7673 26.708 65.5601 27.0369 63.9794C29.4918 52.1817 34.1477 45.1845 35.052 43.7689C35.0869 43.7143 35.1162 43.6685 35.1396 43.6314C35.8458 42.5121 40.8705 35.6425 41.6077 34.7247C41.6139 34.7139 41.6376 34.6743 41.6805 34.5901C41.7331 34.4869 41.7863 34.3745 41.8554 34.229C41.8821 34.1726 41.9112 34.1113 41.9435 34.0435C42.1568 33.5968 42.458 32.985 42.8791 32.383ZM61.9436 36.3082C62.8035 36.2419 63.6918 36.0164 64.5265 35.7533C65.4783 35.4533 66.485 35.0623 67.4421 34.6905C67.5015 34.6674 67.5606 34.6445 67.6196 34.6216C68.6543 34.22 69.6343 33.8445 70.5545 33.5667C71.4843 33.286 72.2482 33.1388 72.8499 33.1388C73.8201 33.1388 74.3905 33.5889 74.8694 34.2737C75.1249 34.639 75.3296 35.0424 75.5312 35.4647C75.5526 35.5094 75.5749 35.5565 75.5979 35.605C75.6736 35.7648 75.7562 35.939 75.8321 36.0878C75.9244 36.2691 76.07 36.5425 76.2669 36.7839C76.8582 37.509 81.8941 44.3962 82.5223 45.3918C82.5437 45.4257 82.5711 45.4685 82.6042 45.5202C82.6305 45.5613 82.6603 45.6076 82.6935 45.6592C83.7121 47.2408 87.9228 53.7788 90.1852 64.6515C90.5013 66.1706 90.7154 67.3 91.0025 69.4233C91.2102 70.9595 91.1577 72.7477 91.1145 74.0757C91.1012 74.4858 91.0887 74.8682 91.0851 75.2123C91.0745 76.228 90.9355 77.6992 90.7594 79.346C90.7277 79.6421 90.6948 79.9494 90.6613 80.2683C90.1671 84.968 88.0905 87.496 87.3446 88.4041C87.3325 88.4188 87.3208 88.433 87.3095 88.4468C87.1301 88.6655 86.9436 88.8808 86.7467 89.1005C85.86 90.0904 82.4983 93.437 76.4877 94.8866C68.9953 96.6936 63.4586 96.701 63.4586 96.701H56.9933C56.9933 96.701 51.4565 96.6936 43.9642 94.8866C37.9536 93.437 34.5919 90.0904 33.7051 89.1005C33.5083 88.8808 33.3218 88.6655 33.1424 88.4468C33.131 88.433 33.1194 88.4188 33.1073 88.4042C32.3614 87.496 30.2848 84.9681 29.7906 80.2682C29.7571 79.9494 29.7242 79.6421 29.6925 79.346C29.5164 77.6992 29.3774 76.228 29.3667 75.2123C29.3634 74.8898 29.3522 74.5335 29.3399 74.1524C29.339 74.127 29.3382 74.1014 29.3374 74.0757C29.2942 72.7477 29.2417 70.9595 29.4494 69.4233C29.7365 67.3 29.9506 66.1706 30.2667 64.6515C32.6029 53.4241 37.0165 46.8188 37.8476 45.5203C37.8807 45.4685 37.9082 45.4257 37.9295 45.3918C38.5578 44.3962 43.5937 37.509 44.185 36.7839C44.3819 36.5425 44.5274 36.2691 44.6198 36.0878C44.6956 35.939 44.7782 35.7648 44.854 35.605C44.8768 35.5568 44.8994 35.5092 44.9206 35.4647C45.1222 35.0424 45.327 34.639 45.5825 34.2737C46.0614 33.5889 46.6318 33.1388 47.6019 33.1388C48.2036 33.1388 48.9675 33.286 49.8974 33.5667C50.8176 33.8445 51.7976 34.22 52.8323 34.6216C52.8912 34.6445 52.9504 34.6674 53.0098 34.6905C53.9669 35.0623 54.9736 35.4533 55.9254 35.7533C56.7601 36.0164 57.6483 36.2419 58.5083 36.3082C58.5917 36.3212 58.6771 36.3279 58.7641 36.3279H61.6877C61.7748 36.3279 61.8602 36.3212 61.9436 36.3082Z" fill="#252525"/>
<path d="M59.8051 58.3644C59.9626 58.1317 60.1024 57.8941 60.2264 57.6556C60.3503 57.8941 60.4901 58.1317 60.6476 58.3644C61.4494 59.5486 62.6287 60.1081 63.531 60.3746C63.9885 60.5097 64.3983 60.5769 64.6955 60.6107C64.8449 60.6277 64.968 60.6364 65.0572 60.641C65.1463 60.6455 64.7185 60.6461 65.2176 60.6459C65.803 60.6457 66.2159 60.1989 66.2159 59.6476C66.2159 59.0978 65.7713 58.6517 65.222 58.6494L65.2135 58.6492C65.2033 58.649 65.1848 58.6484 65.1587 58.6471C65.1065 58.6444 65.025 58.6388 64.9209 58.627C64.7112 58.6031 64.4191 58.5551 64.0966 58.4599C63.4392 58.2657 62.7468 57.9037 62.3008 57.245C61.7796 56.4753 61.5039 55.582 61.3624 54.8507C61.2927 54.4902 61.2581 54.4646 61.241 54.2499C61.2324 54.1429 61.2283 54.06 61.2264 54.0065C61.2254 53.9798 61.225 53.9605 61.2248 53.9492L61.2246 53.9385C61.2246 53.9385 61.2246 53.5272 60.9321 53.2348C60.6397 52.9424 60.2264 52.9424 60.2264 52.9424C60.2264 52.9424 59.813 52.9424 59.5206 53.2348C59.2282 53.5272 59.2281 53.9385 59.2281 53.9385L59.2279 53.9492C59.2278 53.9605 59.2273 53.9798 59.2263 54.0065C59.2244 54.06 59.2203 54.1429 59.2118 54.2499C59.1947 54.4646 59.16 54.4902 59.0903 54.8507C58.9488 55.582 58.6731 56.4753 58.1519 57.245C57.7059 57.9037 57.0135 58.2657 56.3561 58.4599C56.0336 58.5551 55.7415 58.6031 55.5318 58.627C55.4278 58.6388 55.3462 58.6444 55.294 58.6471C55.2679 58.6484 55.2494 58.649 55.2392 58.6492L55.2307 58.6494C54.6814 58.6517 54.2368 59.0978 54.2368 59.6476C54.2368 60.1989 54.6497 60.6457 55.2351 60.6459C55.7342 60.6461 55.3064 60.6455 55.3955 60.641C55.4847 60.6364 55.6078 60.6277 55.7572 60.6107C56.0544 60.5769 56.4642 60.5097 56.9217 60.3746C57.824 60.1081 59.0033 59.5486 59.8051 58.3644Z" fill="#252525"/>
<path d="M51.6703 54.6538C51.6703 56.544 50.138 58.0764 48.2477 58.0764C46.3575 58.0764 44.8251 56.544 44.8251 54.6538C44.8251 52.7635 46.3575 51.2312 48.2477 51.2312C50.138 51.2312 51.6703 52.7635 51.6703 54.6538Z" fill="#252525"/>
<path d="M75.628 54.6538C75.628 56.544 74.0957 58.0764 72.2054 58.0764C70.3152 58.0764 68.7828 56.544 68.7828 54.6538C68.7828 52.7635 70.3152 51.2312 72.2054 51.2312C74.0957 51.2312 75.628 52.7635 75.628 54.6538Z" fill="#252525"/>
<path fill-rule="evenodd" clip-rule="evenodd" d="M60.2264 20C44.7534 20 34.7046 28.9436 32.3198 31.3284C28.7278 34.9204 27.07 38.7886 27.07 42.3806C27.07 47.0777 31.2146 52.0512 33.425 53.1564C36.6485 51.5907 46.5217 49.8407 60.2264 49.8407C73.931 49.8407 83.8042 51.5907 87.0278 53.1564C89.2382 52.0512 93.3828 47.0777 93.3828 42.3806C93.3828 38.7886 91.7249 34.9204 88.133 31.3284C85.7481 28.9436 75.6994 20 60.2264 20Z" fill="#252525"/>
<path d="M60.2264 44.6256C46.1349 44.6256 40.0469 46.3911 35.626 48.8778C38.3891 45.1938 45.4165 41.0337 60.2264 41.0337C75.0362 41.0337 82.0638 45.1938 84.8269 48.8778C80.406 46.3911 74.3178 44.6256 60.2264 44.6256Z" fill="#F8F8F8"/>
<circle cx="60.2259" cy="30.6957" r="4.27824" fill="#F8F8F8"/>
<path fill-rule="evenodd" clip-rule="evenodd" d="M53.6329 30.7105C54.2156 30.6134 54.7666 31.007 54.8637 31.5897C55.3083 34.2572 57.5141 36.0438 60.2261 36.0438C62.9381 36.0438 65.1439 34.2572 65.5885 31.5897C65.6856 31.007 66.2366 30.6134 66.8193 30.7105C67.402 30.8076 67.7956 31.3587 67.6985 31.9414C67.0735 35.6912 63.9314 38.1829 60.2261 38.1829C56.5208 38.1829 53.3787 35.6912 52.7537 31.9414C52.6566 31.3587 53.0502 30.8076 53.6329 30.7105Z" fill="#F8F8F8"/>
</svg>
