<svg width="18" height="60" viewBox="0 0 18 60" fill="none" xmlns="http://www.w3.org/2000/svg">
<path d="M6.08633 20.085V12.4336H11.9784V20.085H6.08633ZM6.08633 47.5664V39.8512H11.9784V47.5664H6.08633ZM6.08633 12.4336C6.08633 10.0531 6.60432 7.92774 7.64029 6.05739C8.67626 4.18704 10.0791 2.72051 11.8489 1.65781C13.6619 0.552604 15.7122 0 18 0V5.0372C16.1007 5.0372 14.6115 5.67482 13.5324 6.95005C12.4964 8.22529 11.9784 10.0531 11.9784 12.4336H6.08633ZM6.08633 47.5664H11.9784C11.9784 49.8618 12.4964 51.6684 13.5324 52.9862C14.6115 54.3039 16.1007 54.9628 18 54.9628V60C15.7122 60 13.6619 59.4474 11.8489 58.3422C10.0791 57.2795 8.67626 55.7917 7.64029 53.8789C6.60432 52.0085 6.08633 49.9044 6.08633 47.5664ZM11.9784 20.085C11.9784 22.423 11.4388 24.5484 10.3597 26.4612C9.32374 28.3316 7.89928 29.8193 6.08633 30.9245C4.31655 31.9872 2.28777 32.5186 0 32.5186V27.4814C1.94245 27.4814 3.43165 26.8438 4.46763 25.5685C5.54676 24.2508 6.08633 22.423 6.08633 20.085H11.9784ZM11.9784 39.915H6.08633C6.08633 37.5345 5.54676 35.7067 4.46763 34.4315C3.43165 33.1137 1.94245 32.4548 0 32.4548V27.4814C2.28777 27.4814 4.31655 28.034 6.08633 29.1392C7.89928 30.2019 9.32374 31.6684 10.3597 33.5388C11.4388 35.3666 11.9784 37.492 11.9784 39.915Z" fill="#222222"/>
</svg>
