<svg width="64" height="64" viewBox="0 0 64 64" fill="none" xmlns="http://www.w3.org/2000/svg">
<path d="M59.4 45.4C58.6 44.6 57.4 44.6 56.6 45.4C56 46 55.6 46.4 55 47L50 34.6C50 34.4 49.8 34.2 49.8 34L57.6 36C58.2 36.2 59 36 59.4 35.6C59.8 35.2 60.2 34.6 60 33.8L58.6 21.8C58 18.4 55.2 16 52 16C50.2 16 48.6 16.8 47.4 18L43.4 22H29.6L27.4 15.6C26.2 12.4 24 9.80002 21 8.00002C16.8 5.20002 11.2 5.20002 7 8.00002L3 10.4C2.2 10.6 2 11.4 2 12.2L4 28.2C4.2 29.2 5 30 6 30H10C10.8 30 11.4 29.6 11.8 28.8L13.4 25.6C14.2 31.4 13.4 37.2 11 42.6L9 47C8.6 46.6 8 46 7.4 45.4C6.6 44.6 5.4 44.6 4.6 45.4C3.8 46.2 3.8 47.4 4.6 48.2C11.8 55.8 21.6 60 32 60C42.4 60 52.2 55.8 59.4 48.2C60.2 47.4 60.2 46.2 59.4 45.4ZM17.8 52.8C20.4 47.6 26 44 32 44C38 44 43.6 47.6 46.2 52.8C41.8 54.8 37 56 32 56C27 56 22.2 54.8 17.8 52.8Z" fill="#222222"/>
</svg>
